<svg xmlns="http://www.w3.org/2000/svg" viewBox="0 0 64 64">
  <defs>
    <linearGradient id="letco-blue" x1="8" y1="8" x2="52" y2="52" gradientUnits="userSpaceOnUse">
      <stop stop-color="#0795e6"/>
      <stop offset="1" stop-color="#075a9f"/>
    </linearGradient>
  </defs>
  <rect width="64" height="64" rx="15" fill="#fff"/>
  <path d="M31.8 7.5c-9.5 0-18 5.4-22.2 13.7l9.2 5.4c2.4-4.8 7.3-8 13-8 4.6 0 8.8 2.2 11.5 5.6l8.7-6.1A25.3 25.3 0 0 0 31.8 7.5Z" fill="url(#letco-blue)"/>
  <path d="M52 18.1a25 25 0 0 1-32.4 36.3l5.1-9.4a14.5 14.5 0 0 0 18.6-20.8l8.7-6.1Z" fill="#e31e35"/>
  <path d="M19.6 54.4A25.1 25.1 0 0 1 9.6 21.2l9.2 5.4a14.5 14.5 0 0 0 5.9 18.4l-5.1 9.4Z" fill="#0878c5"/>
  <path d="M25.5 24.4c4-3.4 10-3.1 13.6.7 3.5 3.8 3.5 9.7 0 13.5-3.6 3.8-9.6 4.1-13.6.7 5.1-1.5 8.3-4 9.5-7.5-1.2-3.4-4.4-6-9.5-7.4Z" fill="#fff"/>
</svg>
